<svg width="500" height="500" viewBox="0 0 500 500" fill="none" xmlns="http://www.w3.org/2000/svg">
<g clip-path="url(#clip0_625_3423)">
<rect width="500" height="500" fill="black"/>
<g filter="url(#filter0_f_625_3423)">
<path d="M294.228 -129.878L271.46 -50.2772C234.916 77.4876 267.074 215.065 356.465 313.394V313.394L511.566 460.272L302.119 369.567L268.247 358.421C150.349 319.628 21.3742 334.441 -84.6588 398.952L-161.689 445.818L-73.0452 174.146L-221.579 -69.9887L50.094 18.6553L294.228 -129.878Z" fill="#2563EB"/>
</g>
<g filter="url(#filter1_f_625_3423)">
<path d="M180.402 -202.981L157.634 -123.38C121.09 4.38491 153.248 141.962 242.639 240.291V240.291L397.74 387.17L188.293 296.464L154.421 285.319C36.5234 246.525 -92.4518 261.338 -198.485 325.849L-275.515 372.716L-186.871 101.043L-335.405 -143.091L-63.732 -54.4473L180.402 -202.981Z" fill="#00CEFF" fill-opacity="0.8"/>
</g>
<g filter="url(#filter2_f_625_3423)">
<path d="M28.089 -318.594L5.32115 -238.993C-31.2228 -111.228 0.934333 26.349 90.3252 124.678V124.678L245.426 271.557L35.9798 180.851L2.1075 169.705C-115.79 130.912 -244.765 145.725 -350.798 210.236L-427.829 257.102L-339.184 -14.5702L-487.718 -258.705L-216.045 -170.06L28.089 -318.594Z" fill="#22D3EE"/>
</g>
</g>
<defs>
<filter id="filter0_f_625_3423" x="-261.579" y="-169.878" width="813.144" height="670.151" filterUnits="userSpaceOnUse" color-interpolation-filters="sRGB">
<feFlood flood-opacity="0" result="BackgroundImageFix"/>
<feBlend mode="normal" in="SourceGraphic" in2="BackgroundImageFix" result="shape"/>
<feGaussianBlur stdDeviation="20" result="effect1_foregroundBlur_625_3423"/>
</filter>
<filter id="filter1_f_625_3423" x="-375.405" y="-242.981" width="813.144" height="670.151" filterUnits="userSpaceOnUse" color-interpolation-filters="sRGB">
<feFlood flood-opacity="0" result="BackgroundImageFix"/>
<feBlend mode="normal" in="SourceGraphic" in2="BackgroundImageFix" result="shape"/>
<feGaussianBlur stdDeviation="20" result="effect1_foregroundBlur_625_3423"/>
</filter>
<filter id="filter2_f_625_3423" x="-527.718" y="-358.594" width="813.144" height="670.151" filterUnits="userSpaceOnUse" color-interpolation-filters="sRGB">
<feFlood flood-opacity="0" result="BackgroundImageFix"/>
<feBlend mode="normal" in="SourceGraphic" in2="BackgroundImageFix" result="shape"/>
<feGaussianBlur stdDeviation="20" result="effect1_foregroundBlur_625_3423"/>
</filter>
<clipPath id="clip0_625_3423">
<rect width="500" height="500" fill="white"/>
</clipPath>
</defs>
</svg>
