<svg width="1920" height="748" fill="none" xmlns="http://www.w3.org/2000/svg"><g clip-path="url(#a)"><mask id="c" style="mask-type:alpha" maskUnits="userSpaceOnUse" x="-168" y="414" width="1151" height="621"><path fill="url(#b)" d="M-168 414H983v621H-168z"/></mask><g mask="url(#c)" stroke="#FCFCFD" stroke-miterlimit="10"><path d="m950 476-1084 542M-134 1018 950 521.167M-134 1018 950 566.333M-134 1018 950 611.5M-134 1018 950 656.667M-134 1018 950 701.833M-134 1018 950 747M-134 1018 950 476M950 476-134 972.833M950 476-134 927.667M950 476-134 882.5M950 476-134 837.333M950 476-134 792.167M950 476-134 747M950 476-134 701.833M950 476-134 656.667M950 476-134 611.5M950 476l-1084 90.333M950 476l-1084 45.167M950 476H-134"/></g><mask id="e" style="mask-type:alpha" maskUnits="userSpaceOnUse" x="894" y="414" width="1151" height="621"><path transform="matrix(-1 0 0 1 2045 414)" fill="url(#d)" d="M0 0h1151v621H0z"/></mask><g mask="url(#e)" stroke="#FCFCFD" stroke-miterlimit="10"><path d="m927 476 1084 542M2011 1018 927 521.167M2011 1018 927 566.333M2011 1018 927 611.5M2011 1018 927 656.667M2011 1018 927 701.833M2011 1018 927 747M2011 1018 927 476M927 476l1084 496.833M927 476l1084 451.667M927 476l1084 406.5M927 476l1084 361.333M927 476l1084 316.167M927 476l1084 271M927 476l1084 225.833M927 476l1084 180.667M927 476l1084 135.5M927 476l1084 90.333M927 476l1084 45.167M927 476h1084"/></g></g><defs><radialGradient id="b" cx="0" cy="0" r="1" gradientUnits="userSpaceOnUse" gradientTransform="matrix(0 310.5 -575.5 0 407.5 724.5)"><stop stop-color="#D9D9D9"/><stop offset="1" stop-color="#D9D9D9" stop-opacity="0"/></radialGradient><radialGradient id="d" cx="0" cy="0" r="1" gradientUnits="userSpaceOnUse" gradientTransform="matrix(0 310.5 -575.5 0 575.5 310.5)"><stop stop-color="#D9D9D9"/><stop offset="1" stop-color="#D9D9D9" stop-opacity="0"/></radialGradient><clipPath id="a"><path fill="#fff" d="M0 0h1920v748H0z"/></clipPath></defs></svg>