<svg width="1920" height="748" fill="none" xmlns="http://www.w3.org/2000/svg"><g clip-path="url(#a)"><path d="M1793 715.116v219.75" stroke="url(#b)" stroke-width="1.414" stroke-miterlimit="10"/><path d="M1753.06 715.116v209.762" stroke="url(#c)" stroke-width="1.414" stroke-miterlimit="10"/><path d="M1713.12 715.116v199.773" stroke="url(#d)" stroke-width="1.414" stroke-miterlimit="10"/><path d="M1673.18 715.116V904.9" stroke="url(#e)" stroke-width="1.414" stroke-miterlimit="10"/><path d="M1633.24 715.116v179.796" stroke="url(#f)" stroke-width="1.414" stroke-miterlimit="10"/><path d="M1593.3 715.116v169.807" stroke="url(#g)" stroke-width="1.414" stroke-miterlimit="10"/><path d="M1553.36 715.116v159.818" stroke="url(#h)" stroke-width="1.414" stroke-miterlimit="10"/><path d="M1513.42 715.116v149.83" stroke="url(#i)" stroke-width="1.414" stroke-miterlimit="10"/><path d="M1473.48 715.116v139.841" stroke="url(#j)" stroke-width="1.414" stroke-miterlimit="10"/><path d="M1433.54 715.116v129.852" stroke="url(#k)" stroke-width="1.414" stroke-miterlimit="10"/><path d="M1393.61 715.116V834.98" stroke="url(#l)" stroke-width="1.414" stroke-miterlimit="10"/><path d="M1353.67 715.116v109.875" stroke="url(#m)" stroke-width="1.414" stroke-miterlimit="10"/><path d="M1793 715.116v219.75" stroke="url(#n)" stroke-width="4.243" stroke-miterlimit="10"/><path d="M1832.94 715.116v209.762" stroke="url(#o)" stroke-width="4.243" stroke-miterlimit="10"/><path d="M1872.88 715.116v199.773" stroke="url(#p)" stroke-width="4.243" stroke-miterlimit="10"/><path d="M1912.82 715.116V904.9" stroke="url(#q)" stroke-width="4.243" stroke-miterlimit="10"/><path d="M1793 715.116v-219.75" stroke="url(#r)" stroke-width="1.414" stroke-miterlimit="10"/><path d="M1832.94 715.116V505.354" stroke="url(#s)" stroke-width="1.414" stroke-miterlimit="10"/><path d="M1872.88 715.117V515.344" stroke="url(#t)" stroke-width="1.414" stroke-miterlimit="10"/><path d="M1912.82 715.116V525.332" stroke="url(#u)" stroke-width="1.414" stroke-miterlimit="10"/><path d="M1750 730.616v-404" stroke="url(#v)" stroke-width="4.243" stroke-miterlimit="10"/><path d="M1713.12 715.117V515.344" stroke="url(#w)" stroke-width="4.243" stroke-miterlimit="10"/><path d="M1673.18 715.116V525.332" stroke="url(#x)" stroke-width="4.243" stroke-miterlimit="10"/><path d="M1633.24 715.116V535.32" stroke="url(#y)" stroke-width="4.243" stroke-miterlimit="10"/><path d="M1593.3 715.116V545.31" stroke="url(#z)" stroke-width="4.243" stroke-miterlimit="10"/><path d="M1553.36 715.116V555.298" stroke="url(#A)" stroke-width="4.243" stroke-miterlimit="10"/><path d="M1513.42 715.117v-149.83" stroke="url(#B)" stroke-width="4.243" stroke-miterlimit="10"/><path d="M1473.48 715.116V575.275" stroke="url(#C)" stroke-width="4.243" stroke-miterlimit="10"/><path d="M1433.54 715.116V585.264" stroke="url(#D)" stroke-width="4.243" stroke-miterlimit="10"/><path d="M1393.61 715.117V595.253" stroke="url(#E)" stroke-width="4.243" stroke-miterlimit="10"/><path d="M1353.67 715.116V605.241" stroke="url(#F)" stroke-width="4.243" stroke-miterlimit="10"/><path d="M1788 777.077V41.556" stroke="url(#G)" stroke-width="4.243" stroke-miterlimit="10"/><mask id="I" style="mask-type:alpha" maskUnits="userSpaceOnUse" x="-234" y="-383" width="2055" height="885"><path fill="url(#H)" d="M-234-383h2055v885H-234z"/></mask><g mask="url(#I)"><path stroke="#fff" stroke-opacity=".3" d="M63.5-53.5h119v119h-119zM182.5-53.5h119v119h-119zM301.5-53.5h119v119h-119zM420.5-53.5h119v119h-119zM539.5-53.5h119v119h-119z"/><path fill="#D9D9D9" fill-opacity=".3" d="M658-54h120V66H658z"/><path stroke="#fff" stroke-opacity=".3" d="M658.5-53.5h119v119h-119zM777.5-53.5h119v119h-119zM896.5-53.5h119v119h-119zM1015.5-53.5h119v119h-119zM1134.5-53.5h119v119h-119zM1253.5-53.5h119v119h-119zM1372.5-53.5h119v119h-119zM1491.5-53.5h119v119h-119zM63.5 65.5h119v119h-119zM182.5 65.5h119v119h-119zM301.5 65.5h119v119h-119zM420.5 65.5h119v119h-119zM539.5 65.5h119v119h-119zM658.5 65.5h119v119h-119zM777.5 65.5h119v119h-119zM896.5 65.5h119v119h-119zM1015.5 65.5h119v119h-119z"/><path fill="#D9D9D9" fill-opacity=".3" d="M1134 65h120v120h-120z"/><path stroke="#fff" stroke-opacity=".3" d="M1134.5 65.5h119v119h-119zM1253.5 65.5h119v119h-119zM1372.5 65.5h119v119h-119zM1491.5 65.5h119v119h-119zM63.5 184.5h119v119h-119zM182.5 184.5h119v119h-119zM301.5 184.5h119v119h-119zM420.5 184.5h119v119h-119zM539.5 184.5h119v119h-119zM658.5 184.5h119v119h-119zM777.5 184.5h119v119h-119zM896.5 184.5h119v119h-119zM1015.5 184.5h119v119h-119zM1134.5 184.5h119v119h-119zM1253.5 184.5h119v119h-119zM1372.5 184.5h119v119h-119zM1491.5 184.5h119v119h-119zM63.5 303.5h119v119h-119zM182.5 303.5h119v119h-119zM301.5 303.5h119v119h-119zM420.5 303.5h119v119h-119z"/><path fill="#D9D9D9" fill-opacity=".5" d="M539 303h120v120H539z"/><path stroke="#fff" stroke-opacity=".3" d="M539.5 303.5h119v119h-119zM658.5 303.5h119v119h-119zM777.5 303.5h119v119h-119zM896.5 303.5h119v119h-119zM1015.5 303.5h119v119h-119zM1134.5 303.5h119v119h-119zM1253.5 303.5h119v119h-119zM1372.5 303.5h119v119h-119zM1491.5 303.5h119v119h-119zM63.5 422.5h119v119h-119zM182.5 422.5h119v119h-119zM301.5 422.5h119v119h-119zM420.5 422.5h119v119h-119zM539.5 422.5h119v119h-119zM658.5 422.5h119v119h-119zM777.5 422.5h119v119h-119zM896.5 422.5h119v119h-119zM1015.5 422.5h119v119h-119z"/><path fill="#D9D9D9" fill-opacity=".5" d="M1134 422h120v120h-120z"/><path stroke="#fff" stroke-opacity=".3" d="M1134.5 422.5h119v119h-119zM1253.5 422.5h119v119h-119zM1372.5 422.5h119v119h-119zM1491.5 422.5h119v119h-119z"/></g><path d="M175 748V512" stroke="url(#J)" stroke-width="1.414" stroke-miterlimit="10"/><path d="M132.091 748V522.728" stroke="url(#K)" stroke-width="1.414" stroke-miterlimit="10"/><path d="M89.182 748V533.454" stroke="url(#L)" stroke-width="1.414" stroke-miterlimit="10"/><path d="M46.273 748V544.182" stroke="url(#M)" stroke-width="1.414" stroke-miterlimit="10"/><path d="M3.363 748V554.909" stroke="url(#N)" stroke-width="1.414" stroke-miterlimit="10"/><path d="M175 748V512" stroke="url(#O)" stroke-width="4.243" stroke-miterlimit="10"/><path d="M217.909 748V522.728" stroke="url(#P)" stroke-width="4.243" stroke-miterlimit="10"/><path d="M260.818 748V533.454" stroke="url(#Q)" stroke-width="4.243" stroke-miterlimit="10"/><path d="M303.727 748V544.182" stroke="url(#R)" stroke-width="4.243" stroke-miterlimit="10"/><path d="M346.637 748V554.909" stroke="url(#S)" stroke-width="4.243" stroke-miterlimit="10"/><path d="M389.545 748V565.637" stroke="url(#T)" stroke-width="4.243" stroke-miterlimit="10"/><path d="M432.455 748V576.363" stroke="url(#U)" stroke-width="4.243" stroke-miterlimit="10"/><path d="M475.363 748V587.091" stroke="url(#V)" stroke-width="4.243" stroke-miterlimit="10"/><path d="M518.273 748V597.818" stroke="url(#W)" stroke-width="4.243" stroke-miterlimit="10"/><path d="M561.182 748V608.546" stroke="url(#X)" stroke-width="4.243" stroke-miterlimit="10"/><path d="M604.092 748V619.272" stroke="url(#Y)" stroke-width="4.243" stroke-miterlimit="10"/><path d="M647 748V630" stroke="url(#Z)" stroke-width="4.243" stroke-miterlimit="10"/></g><defs><linearGradient id="A" x1="1553.86" y1="555.298" x2="1553.86" y2="715.116" gradientUnits="userSpaceOnUse"><stop stop-color="#212121"/><stop offset="1" stop-color="#2F3031" stop-opacity="0"/></linearGradient><linearGradient id="b" x1="1793.5" y1="715.116" x2="1793.5" y2="934.866" gradientUnits="userSpaceOnUse"><stop stop-color="#212121"/><stop offset="1" stop-color="#2F3031" stop-opacity="0"/></linearGradient><linearGradient id="d" x1="1713.62" y1="715.116" x2="1713.62" y2="914.889" gradientUnits="userSpaceOnUse"><stop stop-color="#212121"/><stop offset="1" stop-color="#2F3031" stop-opacity="0"/></linearGradient><linearGradient id="e" x1="1673.68" y1="715.116" x2="1673.68" y2="904.9" gradientUnits="userSpaceOnUse"><stop stop-color="#212121"/><stop offset="1" stop-color="#2F3031" stop-opacity="0"/></linearGradient><linearGradient id="f" x1="1633.74" y1="715.116" x2="1633.74" y2="894.912" gradientUnits="userSpaceOnUse"><stop stop-color="#212121"/><stop offset="1" stop-color="#2F3031" stop-opacity="0"/></linearGradient><linearGradient id="g" x1="1593.8" y1="715.116" x2="1593.8" y2="884.923" gradientUnits="userSpaceOnUse"><stop stop-color="#212121"/><stop offset="1" stop-color="#2F3031" stop-opacity="0"/></linearGradient><linearGradient id="h" x1="1553.86" y1="715.116" x2="1553.86" y2="874.934" gradientUnits="userSpaceOnUse"><stop stop-color="#212121"/><stop offset="1" stop-color="#2F3031" stop-opacity="0"/></linearGradient><linearGradient id="i" x1="1513.92" y1="715.116" x2="1513.92" y2="864.946" gradientUnits="userSpaceOnUse"><stop stop-color="#212121"/><stop offset="1" stop-color="#2F3031" stop-opacity="0"/></linearGradient><linearGradient id="j" x1="1473.98" y1="715.116" x2="1473.98" y2="854.957" gradientUnits="userSpaceOnUse"><stop stop-color="#212121"/><stop offset="1" stop-color="#2F3031" stop-opacity="0"/></linearGradient><linearGradient id="k" x1="1434.04" y1="715.116" x2="1434.04" y2="844.968" gradientUnits="userSpaceOnUse"><stop stop-color="#212121"/><stop offset="1" stop-color="#2F3031" stop-opacity="0"/></linearGradient><linearGradient id="l" x1="1394.11" y1="715.116" x2="1394.11" y2="834.98" gradientUnits="userSpaceOnUse"><stop stop-color="#212121"/><stop offset="1" stop-color="#2F3031" stop-opacity="0"/></linearGradient><linearGradient id="m" x1="1354.17" y1="715.116" x2="1354.17" y2="824.991" gradientUnits="userSpaceOnUse"><stop stop-color="#212121"/><stop offset="1" stop-color="#2F3031" stop-opacity="0"/></linearGradient><linearGradient id="n" x1="1793.5" y1="715.116" x2="1793.5" y2="934.866" gradientUnits="userSpaceOnUse"><stop stop-color="#212121"/><stop offset="1" stop-color="#2F3031" stop-opacity="0"/></linearGradient><linearGradient id="o" x1="1833.44" y1="715.116" x2="1833.44" y2="924.878" gradientUnits="userSpaceOnUse"><stop stop-color="#212121"/><stop offset="1" stop-color="#2F3031" stop-opacity="0"/></linearGradient><linearGradient id="p" x1="1873.38" y1="715.116" x2="1873.38" y2="914.889" gradientUnits="userSpaceOnUse"><stop stop-color="#212121"/><stop offset="1" stop-color="#2F3031" stop-opacity="0"/></linearGradient><linearGradient id="q" x1="1913.32" y1="715.116" x2="1913.32" y2="904.9" gradientUnits="userSpaceOnUse"><stop stop-color="#212121"/><stop offset="1" stop-color="#2F3031" stop-opacity="0"/></linearGradient><linearGradient id="r" x1="1793.5" y1="495.366" x2="1793.5" y2="715.116" gradientUnits="userSpaceOnUse"><stop stop-color="#212121"/><stop offset="1" stop-color="#2F3031" stop-opacity="0"/></linearGradient><linearGradient id="s" x1="1833.44" y1="505.354" x2="1833.44" y2="715.116" gradientUnits="userSpaceOnUse"><stop stop-color="#212121"/><stop offset="1" stop-color="#2F3031" stop-opacity="0"/></linearGradient><linearGradient id="t" x1="1873.38" y1="515.344" x2="1873.38" y2="715.117" gradientUnits="userSpaceOnUse"><stop stop-color="#212121"/><stop offset="1" stop-color="#2F3031" stop-opacity="0"/></linearGradient><linearGradient id="u" x1="1913.32" y1="525.332" x2="1913.32" y2="715.116" gradientUnits="userSpaceOnUse"><stop stop-color="#212121"/><stop offset="1" stop-color="#2F3031" stop-opacity="0"/></linearGradient><linearGradient id="v" x1="1750.5" y1="326.616" x2="1750.5" y2="730.616" gradientUnits="userSpaceOnUse"><stop stop-color="#212121"/><stop offset="1" stop-color="#2F3031" stop-opacity="0"/></linearGradient><linearGradient id="w" x1="1713.62" y1="515.344" x2="1713.62" y2="715.117" gradientUnits="userSpaceOnUse"><stop stop-color="#212121"/><stop offset="1" stop-color="#2F3031" stop-opacity="0"/></linearGradient><linearGradient id="x" x1="1673.68" y1="525.332" x2="1673.68" y2="715.116" gradientUnits="userSpaceOnUse"><stop stop-color="#fff"/><stop offset="1" stop-color="#2F3031" stop-opacity="0"/></linearGradient><linearGradient id="y" x1="1633.74" y1="535.32" x2="1633.74" y2="715.116" gradientUnits="userSpaceOnUse"><stop stop-color="#212121"/><stop offset="1" stop-color="#2F3031" stop-opacity="0"/></linearGradient><linearGradient id="z" x1="1593.8" y1="545.31" x2="1593.8" y2="715.116" gradientUnits="userSpaceOnUse"><stop stop-color="#212121"/><stop offset="1" stop-color="#2F3031" stop-opacity="0"/></linearGradient><linearGradient id="c" x1="1753.56" y1="715.116" x2="1753.56" y2="924.878" gradientUnits="userSpaceOnUse"><stop stop-color="#212121"/><stop offset="1" stop-color="#2F3031" stop-opacity="0"/></linearGradient><linearGradient id="B" x1="1513.92" y1="565.287" x2="1513.92" y2="715.117" gradientUnits="userSpaceOnUse"><stop stop-color="#F7FBFF"/><stop offset="1" stop-color="#2F3031" stop-opacity="0"/></linearGradient><linearGradient id="C" x1="1473.98" y1="575.275" x2="1473.98" y2="715.116" gradientUnits="userSpaceOnUse"><stop stop-color="#212121"/><stop offset="1" stop-color="#2F3031" stop-opacity="0"/></linearGradient><linearGradient id="D" x1="1434.04" y1="585.264" x2="1434.04" y2="715.116" gradientUnits="userSpaceOnUse"><stop stop-color="#212121"/><stop offset="1" stop-color="#2F3031" stop-opacity="0"/></linearGradient><linearGradient id="E" x1="1394.11" y1="595.253" x2="1394.11" y2="715.117" gradientUnits="userSpaceOnUse"><stop stop-color="#212121"/><stop offset="1" stop-color="#2F3031" stop-opacity="0"/></linearGradient><linearGradient id="F" x1="1354.17" y1="605.241" x2="1354.17" y2="715.116" gradientUnits="userSpaceOnUse"><stop stop-color="#212121"/><stop offset="1" stop-color="#2F3031" stop-opacity="0"/></linearGradient><linearGradient id="G" x1="1788.5" y1="41.556" x2="1788.5" y2="777.077" gradientUnits="userSpaceOnUse"><stop stop-color="#D7D8D9"/><stop offset="1" stop-color="#2F3031" stop-opacity="0"/></linearGradient><linearGradient id="Z" x1="646.5" y1="630" x2="646.5" y2="748" gradientUnits="userSpaceOnUse"><stop stop-color="#212121"/><stop offset="1" stop-color="#2F3031" stop-opacity="0"/></linearGradient><linearGradient id="J" x1="174.5" y1="512" x2="174.5" y2="748" gradientUnits="userSpaceOnUse"><stop stop-color="#212121"/><stop offset="1" stop-color="#2F3031" stop-opacity="0"/></linearGradient><linearGradient id="K" x1="131.591" y1="522.728" x2="131.591" y2="748" gradientUnits="userSpaceOnUse"><stop stop-color="#212121"/><stop offset="1" stop-color="#2F3031" stop-opacity="0"/></linearGradient><linearGradient id="L" x1="88.682" y1="533.454" x2="88.682" y2="748" gradientUnits="userSpaceOnUse"><stop stop-color="#212121"/><stop offset="1" stop-color="#2F3031" stop-opacity="0"/></linearGradient><linearGradient id="M" x1="45.773" y1="544.182" x2="45.773" y2="748" gradientUnits="userSpaceOnUse"><stop stop-color="#212121"/><stop offset="1" stop-color="#2F3031" stop-opacity="0"/></linearGradient><linearGradient id="N" x1="2.863" y1="554.909" x2="2.863" y2="748" gradientUnits="userSpaceOnUse"><stop stop-color="#212121"/><stop offset="1" stop-color="#2F3031" stop-opacity="0"/></linearGradient><linearGradient id="O" x1="174.5" y1="512" x2="174.5" y2="748" gradientUnits="userSpaceOnUse"><stop stop-color="#212121"/><stop offset="1" stop-color="#2F3031" stop-opacity="0"/></linearGradient><linearGradient id="P" x1="217.409" y1="522.728" x2="217.409" y2="748" gradientUnits="userSpaceOnUse"><stop stop-color="#212121"/><stop offset="1" stop-color="#2F3031" stop-opacity="0"/></linearGradient><linearGradient id="Q" x1="260.318" y1="533.454" x2="260.318" y2="748" gradientUnits="userSpaceOnUse"><stop stop-color="#212121"/><stop offset="1" stop-color="#2F3031" stop-opacity="0"/></linearGradient><linearGradient id="R" x1="303.227" y1="544.182" x2="303.227" y2="748" gradientUnits="userSpaceOnUse"><stop stop-color="#fff"/><stop offset="1" stop-color="#2F3031" stop-opacity="0"/></linearGradient><linearGradient id="S" x1="346.137" y1="554.909" x2="346.137" y2="748" gradientUnits="userSpaceOnUse"><stop stop-color="#212121"/><stop offset="1" stop-color="#2F3031" stop-opacity="0"/></linearGradient><linearGradient id="T" x1="389.045" y1="565.637" x2="389.045" y2="748" gradientUnits="userSpaceOnUse"><stop stop-color="#212121"/><stop offset="1" stop-color="#2F3031" stop-opacity="0"/></linearGradient><linearGradient id="U" x1="431.955" y1="576.363" x2="431.955" y2="748" gradientUnits="userSpaceOnUse"><stop stop-color="#212121"/><stop offset="1" stop-color="#2F3031" stop-opacity="0"/></linearGradient><linearGradient id="V" x1="474.863" y1="587.091" x2="474.863" y2="748" gradientUnits="userSpaceOnUse"><stop stop-color="#F7FBFF"/><stop offset="1" stop-color="#2F3031" stop-opacity="0"/></linearGradient><linearGradient id="W" x1="517.773" y1="597.818" x2="517.773" y2="748" gradientUnits="userSpaceOnUse"><stop stop-color="#212121"/><stop offset="1" stop-color="#2F3031" stop-opacity="0"/></linearGradient><linearGradient id="X" x1="560.682" y1="608.546" x2="560.682" y2="748" gradientUnits="userSpaceOnUse"><stop stop-color="#212121"/><stop offset="1" stop-color="#2F3031" stop-opacity="0"/></linearGradient><linearGradient id="Y" x1="603.592" y1="619.272" x2="603.592" y2="748" gradientUnits="userSpaceOnUse"><stop stop-color="#212121"/><stop offset="1" stop-color="#2F3031" stop-opacity="0"/></linearGradient><radialGradient id="H" cx="0" cy="0" r="1" gradientUnits="userSpaceOnUse" gradientTransform="matrix(-218.99648 463.24877 -942.67132 -445.63895 979.5 59.784)"><stop stop-color="#C8A1A1"/><stop offset=".518" stop-color="#D9D9D9" stop-opacity="0"/></radialGradient><clipPath id="a"><path fill="#fff" d="M0 0h1920v748H0z"/></clipPath></defs></svg>