<svg xmlns="http://www.w3.org/2000/svg" width="1920" height="1080" fill="none"><g clip-path="url(#a)"><path stroke="url(#b)" stroke-miterlimit="10" stroke-width="1.414" d="M1739 1069.5v219.75"/><path stroke="url(#c)" stroke-miterlimit="10" stroke-width="1.414" d="M1699.06 1069.5v209.76"/><path stroke="url(#d)" stroke-miterlimit="10" stroke-width="1.414" d="M1659.12 1069.5v199.77"/><path stroke="url(#e)" stroke-miterlimit="10" stroke-width="1.414" d="M1619.18 1069.5v189.78"/><path stroke="url(#f)" stroke-miterlimit="10" stroke-width="1.414" d="M1579.24 1069.5v179.8"/><path stroke="url(#g)" stroke-miterlimit="10" stroke-width="1.414" d="M1539.3 1069.5v169.81"/><path stroke="url(#h)" stroke-miterlimit="10" stroke-width="1.414" d="M1499.36 1069.5v159.82"/><path stroke="url(#i)" stroke-miterlimit="10" stroke-width="1.414" d="M1459.42 1069.5v149.83"/><path stroke="url(#j)" stroke-miterlimit="10" stroke-width="1.414" d="M1419.48 1069.5v139.84"/><path stroke="url(#k)" stroke-miterlimit="10" stroke-width="1.414" d="M1379.55 1069.5v129.85"/><path stroke="url(#l)" stroke-miterlimit="10" stroke-width="1.414" d="M1339.61 1069.5v119.86"/><path stroke="url(#m)" stroke-miterlimit="10" stroke-width="1.414" d="M1299.67 1069.5v109.87"/><path stroke="url(#n)" stroke-miterlimit="10" stroke-width="4.243" d="M1739 1069.5v219.75"/><path stroke="url(#o)" stroke-miterlimit="10" stroke-width="4.243" d="M1778.94 1069.5v209.76"/><path stroke="url(#p)" stroke-miterlimit="10" stroke-width="4.243" d="M1818.88 1069.5v199.77"/><path stroke="url(#q)" stroke-miterlimit="10" stroke-width="4.243" d="M1858.82 1069.5v189.78"/><path stroke="url(#r)" stroke-miterlimit="10" stroke-width="4.243" d="M1898.76 1069.5v179.8"/><path stroke="url(#s)" stroke-miterlimit="10" stroke-width="1.414" d="M1739 1069.5V849.75"/><path stroke="url(#t)" stroke-miterlimit="10" stroke-width="1.414" d="M1778.94 1069.5V859.738"/><path stroke="url(#u)" stroke-miterlimit="10" stroke-width="1.414" d="M1818.88 1069.5V869.728"/><path stroke="url(#v)" stroke-miterlimit="10" stroke-width="1.414" d="M1858.82 1069.5V879.716"/><path stroke="url(#w)" stroke-miterlimit="10" stroke-width="1.414" d="M1898.76 1069.5V889.704"/><path stroke="url(#x)" stroke-miterlimit="10" stroke-width="4.243" d="M1696 1085V681"/><path stroke="url(#y)" stroke-miterlimit="10" stroke-width="4.243" d="M1659.12 1069.5V869.728"/><path stroke="url(#z)" stroke-miterlimit="10" stroke-width="4.243" d="M1619.18 1069.5V879.716"/><path stroke="url(#A)" stroke-miterlimit="10" stroke-width="4.243" d="M1579.24 1069.5V889.704"/><path stroke="url(#B)" stroke-miterlimit="10" stroke-width="4.243" d="M1539.3 1069.5V899.693"/><path stroke="url(#C)" stroke-miterlimit="10" stroke-width="4.243" d="M1499.36 1069.5V909.682"/><path stroke="url(#D)" stroke-miterlimit="10" stroke-width="4.243" d="M1459.42 1069.5V919.671"/><path stroke="url(#E)" stroke-miterlimit="10" stroke-width="4.243" d="M1419.48 1069.5V929.659"/><path stroke="url(#F)" stroke-miterlimit="10" stroke-width="4.243" d="M1379.55 1069.5V939.647"/><path stroke="url(#G)" stroke-miterlimit="10" stroke-width="4.243" d="M1339.61 1069.5V949.637"/><path stroke="url(#H)" stroke-miterlimit="10" stroke-width="4.243" d="M1299.67 1069.5V959.625"/><path stroke="url(#I)" stroke-miterlimit="10" stroke-width="4.243" d="M1734 1476.37V414.384"/><path stroke="url(#J)" stroke-miterlimit="10" stroke-width="1.414" d="M1380-25.5v219.75"/><path stroke="url(#K)" stroke-miterlimit="10" stroke-width="1.414" d="M1340.06-25.5v209.761"/><path stroke="url(#L)" stroke-miterlimit="10" stroke-width="1.414" d="M1300.12-25.5v199.773"/><path stroke="url(#M)" stroke-miterlimit="10" stroke-width="1.414" d="M1260.18-25.5v189.784"/><path stroke="url(#N)" stroke-miterlimit="10" stroke-width="1.414" d="M1220.24-25.5v179.795"/><path stroke="url(#O)" stroke-miterlimit="10" stroke-width="1.414" d="M1180.3-25.5v169.807"/><path stroke="url(#P)" stroke-miterlimit="10" stroke-width="1.414" d="M1140.36-25.5v159.818"/><path stroke="url(#Q)" stroke-miterlimit="10" stroke-width="1.414" d="M1100.42-25.5v149.83"/><path stroke="url(#R)" stroke-miterlimit="10" stroke-width="1.414" d="M1060.48-25.5v139.841"/><path stroke="url(#S)" stroke-miterlimit="10" stroke-width="1.414" d="M1020.55-25.5v129.852"/><path stroke="url(#T)" stroke-miterlimit="10" stroke-width="1.414" d="M980.606-25.5V94.364"/><path stroke="url(#U)" stroke-miterlimit="10" stroke-width="1.414" d="M940.667-25.5V84.375"/><path stroke="url(#V)" stroke-miterlimit="10" stroke-width="4.243" d="M1380-25.5v219.75"/><path stroke="url(#W)" stroke-miterlimit="10" stroke-width="4.243" d="M1419.94-25.5v209.761"/><path stroke="url(#X)" stroke-miterlimit="10" stroke-width="4.243" d="M1459.88-25.5v199.773"/><path stroke="url(#Y)" stroke-miterlimit="10" stroke-width="4.243" d="M1499.82-25.5v189.784"/><path stroke="url(#Z)" stroke-miterlimit="10" stroke-width="4.243" d="M1539.76-25.5v179.795"/><path stroke="url(#aa)" stroke-miterlimit="10" stroke-width="4.243" d="M1579.7-25.5v169.807"/><path stroke="url(#ab)" stroke-miterlimit="10" stroke-width="4.243" d="M1619.64-25.5v159.818"/><path stroke="url(#ac)" stroke-miterlimit="10" stroke-width="4.243" d="M1659.58-25.5v149.83"/><path stroke="url(#ad)" stroke-miterlimit="10" stroke-width="4.243" d="M1699.52-25.5v139.841"/><path stroke="url(#ae)" stroke-miterlimit="10" stroke-width="4.243" d="M1739.45-25.5v129.852"/><path stroke="url(#af)" stroke-miterlimit="10" stroke-width="4.243" d="M1779.39-25.5V94.364"/><path stroke="url(#ag)" stroke-miterlimit="10" stroke-width="4.243" d="M1819.33-25.5V84.375"/><mask id="ai" width="1400" height="1400" x="-569" y="-510" maskUnits="userSpaceOnUse" style="mask-type:alpha"><path fill="url(#ah)" d="M19.313-510h1147v832h-1147z" transform="rotate(45 19.313 -510)"/></mask><g mask="url(#ai)"><path stroke="#FCFCFD" stroke-miterlimit="10" d="M396.135 629.924c-139.955 1.345-295.027-46.613-432.604-125.238"/><path stroke="url(#aj)" stroke-miterlimit="10" d="M680.286 497.798c-45.856 80.387-144.197 130.78-284.152 132.125"/><path stroke="url(#ak)" stroke-miterlimit="10" d="M649.535 185.706c69.981 121.323 76.609 231.705 30.752 312.094"/><path stroke="url(#al)" stroke-miterlimit="10" d="M321.893-123.534c137.579 78.626 257.662 187.918 327.643 309.24"/><path stroke="#FCFCFD" stroke-miterlimit="10" d="M374.019 591.581c-127.741 1.227-269.279-42.545-394.85-114.309M633.373 470.986c-41.855 73.373-131.613 119.368-259.354 120.595"/><path stroke="#FCFCFD" stroke-miterlimit="10" d="M605.303 186.132c63.874 110.735 69.922 211.483 28.068 284.856M306.254-96.122C431.825-24.358 541.429 75.396 605.303 186.13M351.901 553.237C236.374 554.347 108.37 514.76-5.194 449.858M586.455 444.174C548.603 510.53 467.427 552.128 351.9 553.238"/><path stroke="#FCFCFD" stroke-miterlimit="10" d="M561.07 186.557c57.767 100.147 63.237 191.261 25.385 257.618M10.444 422.447c-101.557-58.04-190.201-138.717-241.86-228.276M329.784 514.896c-103.312.993-217.783-34.409-319.34-92.449M539.542 417.362c-33.851 59.341-106.444 96.54-209.757 97.533M516.841 186.98c51.659 89.559 56.551 171.042 22.701 230.382M274.98-41.295c101.558 58.04 190.202 138.718 241.86 228.276M307.667 476.551c-91.098.875-192.035-30.341-281.586-81.52M492.625 390.55c-29.849 52.325-93.858 85.127-184.957 86.002M472.608 187.405c45.552 78.971 49.867 150.82 20.018 203.144M259.343-13.882c89.551 51.178 167.714 122.317 213.265 201.287M285.55 438.208c-78.884.758-166.288-26.272-243.832-70.588M445.71 363.739c-25.846 45.31-81.274 73.713-160.158 74.471M243.704 13.531c77.545 44.316 145.228 105.917 184.672 174.299M-.125-57.057c78.884-.758 166.287 26.273 243.831 70.59M57.356 340.207C-8.18 302.753-65.384 250.69-98.72 192.896M263.434 399.866c-66.67.641-140.54-22.205-206.077-59.659M384.144 188.256c33.336 57.794 36.493 110.376 14.649 148.67M228.066 40.945c65.537 37.455 122.741 89.517 156.077 147.311M21.99-18.715c66.67-.64 140.539 22.205 206.077 59.66M72.994 312.793C19.464 282.201-27.261 239.675-54.49 192.47M241.317 361.522c-54.455.523-114.793-18.137-168.322-48.729"/><path stroke="#FCFCFD" stroke-miterlimit="10" d="M351.878 310.113c-17.842 31.278-56.106 50.886-110.561 51.409"/><path stroke="#FCFCFD" stroke-miterlimit="10" d="M339.911 188.681c27.229 47.205 29.808 90.154 11.966 121.433M212.428 68.359c53.53 30.592 100.254 73.117 127.482 120.322"/><path stroke="#FCFCFD" stroke-miterlimit="10" d="M44.108 19.63c54.456-.523 114.793 18.137 168.322 48.73M88.632 285.381c-41.523-23.73-77.767-56.716-98.888-93.334M219.2 323.18c-42.241.406-89.045-14.069-130.568-37.799M304.962 283.301c-13.84 24.262-43.522 39.472-85.763 39.878M295.682 189.106c21.121 36.618 23.122 69.934 9.282 94.196M196.793 95.771c41.524 23.732 77.767 56.718 98.889 93.335M104.269 257.966c-29.517-16.868-55.28-40.316-70.295-66.346M197.082 284.836c-30.027.289-63.297-10.001-92.813-26.87M258.047 256.489c-9.838 17.247-30.937 28.059-60.963 28.348M251.449 189.531c15.015 26.03 16.436 49.712 6.597 66.958M181.154 123.185c29.517 16.868 55.281 40.317 70.295 66.346M88.341 96.316c30.027-.289 63.297 10.001 92.814 26.87M119.908 230.554c-17.51-10.007-32.793-23.916-41.7-39.358"/><path stroke="#FCFCFD" stroke-miterlimit="10" d="M174.966 246.493c-17.813.171-37.549-5.933-55.06-15.94"/><path stroke="#FCFCFD" stroke-miterlimit="10" d="M211.13 229.677c-5.837 10.231-18.352 16.645-36.165 16.816M207.217 189.957c8.907 15.441 9.751 29.49 3.915 39.721M165.517 150.597c17.51 10.006 32.792 23.916 41.699 39.358M110.457 134.659c17.813-.171 37.549 5.933 55.059 15.939M135.545 203.14c-5.503-3.144-10.307-7.516-13.106-12.369M152.849 208.149c-5.598.054-11.801-1.864-17.304-5.009"/><path stroke="#FCFCFD" stroke-miterlimit="10" d="M164.214 202.864c-1.834 3.216-5.768 5.232-11.366 5.285"/><path stroke="#FCFCFD" stroke-miterlimit="10" d="M162.984 190.382c2.8 4.853 3.064 9.268 1.23 12.483M149.878 178.012c5.503 3.145 10.307 7.517 13.106 12.37M132.574 173c5.599-.054 11.802 1.865 17.304 5.01"/><g filter="url(#am)"><circle cx="149.188" cy="187.152" r="34.723" fill="#fff" transform="rotate(45 149.188 187.152)"/></g></g></g><defs><linearGradient id="b" x1="1739.5" x2="1739.5" y1="1069.5" y2="1289.25" gradientUnits="userSpaceOnUse"><stop stop-color="#212121"/><stop offset="1" stop-color="#2F3031" stop-opacity="0"/></linearGradient><linearGradient id="G" x1="1340.11" x2="1340.11" y1="949.637" y2="1069.5" gradientUnits="userSpaceOnUse"><stop stop-color="#212121"/><stop offset="1" stop-color="#2F3031" stop-opacity="0"/></linearGradient><linearGradient id="d" x1="1659.62" x2="1659.62" y1="1069.5" y2="1269.27" gradientUnits="userSpaceOnUse"><stop stop-color="#212121"/><stop offset="1" stop-color="#2F3031" stop-opacity="0"/></linearGradient><linearGradient id="e" x1="1619.68" x2="1619.68" y1="1069.5" y2="1259.28" gradientUnits="userSpaceOnUse"><stop stop-color="#212121"/><stop offset="1" stop-color="#2F3031" stop-opacity="0"/></linearGradient><linearGradient id="f" x1="1579.74" x2="1579.74" y1="1069.5" y2="1249.3" gradientUnits="userSpaceOnUse"><stop stop-color="#212121"/><stop offset="1" stop-color="#2F3031" stop-opacity="0"/></linearGradient><linearGradient id="g" x1="1539.8" x2="1539.8" y1="1069.5" y2="1239.31" gradientUnits="userSpaceOnUse"><stop stop-color="#212121"/><stop offset="1" stop-color="#2F3031" stop-opacity="0"/></linearGradient><linearGradient id="h" x1="1499.86" x2="1499.86" y1="1069.5" y2="1229.32" gradientUnits="userSpaceOnUse"><stop stop-color="#212121"/><stop offset="1" stop-color="#2F3031" stop-opacity="0"/></linearGradient><linearGradient id="i" x1="1459.92" x2="1459.92" y1="1069.5" y2="1219.33" gradientUnits="userSpaceOnUse"><stop stop-color="#212121"/><stop offset="1" stop-color="#2F3031" stop-opacity="0"/></linearGradient><linearGradient id="j" x1="1419.98" x2="1419.98" y1="1069.5" y2="1209.34" gradientUnits="userSpaceOnUse"><stop stop-color="#212121"/><stop offset="1" stop-color="#2F3031" stop-opacity="0"/></linearGradient><linearGradient id="k" x1="1380.05" x2="1380.05" y1="1069.5" y2="1199.35" gradientUnits="userSpaceOnUse"><stop stop-color="#212121"/><stop offset="1" stop-color="#2F3031" stop-opacity="0"/></linearGradient><linearGradient id="l" x1="1340.11" x2="1340.11" y1="1069.5" y2="1189.36" gradientUnits="userSpaceOnUse"><stop stop-color="#212121"/><stop offset="1" stop-color="#2F3031" stop-opacity="0"/></linearGradient><linearGradient id="m" x1="1300.17" x2="1300.17" y1="1069.5" y2="1179.38" gradientUnits="userSpaceOnUse"><stop stop-color="#212121"/><stop offset="1" stop-color="#2F3031" stop-opacity="0"/></linearGradient><linearGradient id="n" x1="1739.5" x2="1739.5" y1="1069.5" y2="1289.25" gradientUnits="userSpaceOnUse"><stop stop-color="#212121"/><stop offset="1" stop-color="#2F3031" stop-opacity="0"/></linearGradient><linearGradient id="o" x1="1779.44" x2="1779.44" y1="1069.5" y2="1279.26" gradientUnits="userSpaceOnUse"><stop stop-color="#212121"/><stop offset="1" stop-color="#2F3031" stop-opacity="0"/></linearGradient><linearGradient id="p" x1="1819.38" x2="1819.38" y1="1069.5" y2="1269.27" gradientUnits="userSpaceOnUse"><stop stop-color="#212121"/><stop offset="1" stop-color="#2F3031" stop-opacity="0"/></linearGradient><linearGradient id="q" x1="1859.32" x2="1859.32" y1="1069.5" y2="1259.28" gradientUnits="userSpaceOnUse"><stop stop-color="#212121"/><stop offset="1" stop-color="#2F3031" stop-opacity="0"/></linearGradient><linearGradient id="r" x1="1899.26" x2="1899.26" y1="1069.5" y2="1249.3" gradientUnits="userSpaceOnUse"><stop stop-color="#212121"/><stop offset="1" stop-color="#2F3031" stop-opacity="0"/></linearGradient><linearGradient id="s" x1="1739.5" x2="1739.5" y1="849.75" y2="1069.5" gradientUnits="userSpaceOnUse"><stop stop-color="#212121"/><stop offset="1" stop-color="#2F3031" stop-opacity="0"/></linearGradient><linearGradient id="t" x1="1779.44" x2="1779.44" y1="859.738" y2="1069.5" gradientUnits="userSpaceOnUse"><stop stop-color="#212121"/><stop offset="1" stop-color="#2F3031" stop-opacity="0"/></linearGradient><linearGradient id="u" x1="1819.38" x2="1819.38" y1="869.728" y2="1069.5" gradientUnits="userSpaceOnUse"><stop stop-color="#212121"/><stop offset="1" stop-color="#2F3031" stop-opacity="0"/></linearGradient><linearGradient id="v" x1="1859.32" x2="1859.32" y1="879.716" y2="1069.5" gradientUnits="userSpaceOnUse"><stop stop-color="#212121"/><stop offset="1" stop-color="#2F3031" stop-opacity="0"/></linearGradient><linearGradient id="w" x1="1899.26" x2="1899.26" y1="889.704" y2="1069.5" gradientUnits="userSpaceOnUse"><stop stop-color="#212121"/><stop offset="1" stop-color="#2F3031" stop-opacity="0"/></linearGradient><linearGradient id="x" x1="1696.5" x2="1696.5" y1="681" y2="1085" gradientUnits="userSpaceOnUse"><stop stop-color="#212121"/><stop offset="1" stop-color="#2F3031" stop-opacity="0"/></linearGradient><linearGradient id="y" x1="1659.62" x2="1659.62" y1="869.728" y2="1069.5" gradientUnits="userSpaceOnUse"><stop stop-color="#212121"/><stop offset="1" stop-color="#2F3031" stop-opacity="0"/></linearGradient><linearGradient id="z" x1="1619.68" x2="1619.68" y1="879.716" y2="1069.5" gradientUnits="userSpaceOnUse"><stop stop-color="#fff"/><stop offset="1" stop-color="#2F3031" stop-opacity="0"/></linearGradient><linearGradient id="A" x1="1579.74" x2="1579.74" y1="889.704" y2="1069.5" gradientUnits="userSpaceOnUse"><stop stop-color="#212121"/><stop offset="1" stop-color="#2F3031" stop-opacity="0"/></linearGradient><linearGradient id="B" x1="1539.8" x2="1539.8" y1="899.693" y2="1069.5" gradientUnits="userSpaceOnUse"><stop stop-color="#212121"/><stop offset="1" stop-color="#2F3031" stop-opacity="0"/></linearGradient><linearGradient id="C" x1="1499.86" x2="1499.86" y1="909.682" y2="1069.5" gradientUnits="userSpaceOnUse"><stop stop-color="#212121"/><stop offset="1" stop-color="#2F3031" stop-opacity="0"/></linearGradient><linearGradient id="D" x1="1459.92" x2="1459.92" y1="919.671" y2="1069.5" gradientUnits="userSpaceOnUse"><stop stop-color="#F7FBFF"/><stop offset="1" stop-color="#2F3031" stop-opacity="0"/></linearGradient><linearGradient id="E" x1="1419.98" x2="1419.98" y1="929.659" y2="1069.5" gradientUnits="userSpaceOnUse"><stop stop-color="#212121"/><stop offset="1" stop-color="#2F3031" stop-opacity="0"/></linearGradient><linearGradient id="F" x1="1380.05" x2="1380.05" y1="939.647" y2="1069.5" gradientUnits="userSpaceOnUse"><stop stop-color="#212121"/><stop offset="1" stop-color="#2F3031" stop-opacity="0"/></linearGradient><linearGradient id="c" x1="1699.56" x2="1699.56" y1="1069.5" y2="1279.26" gradientUnits="userSpaceOnUse"><stop stop-color="#212121"/><stop offset="1" stop-color="#2F3031" stop-opacity="0"/></linearGradient><linearGradient id="H" x1="1300.17" x2="1300.17" y1="959.625" y2="1069.5" gradientUnits="userSpaceOnUse"><stop stop-color="#212121"/><stop offset="1" stop-color="#2F3031" stop-opacity="0"/></linearGradient><linearGradient id="I" x1="1734.5" x2="1734.5" y1="414.384" y2="1476.37" gradientUnits="userSpaceOnUse"><stop stop-color="#D7D8D9"/><stop offset="1" stop-color="#2F3031" stop-opacity="0"/></linearGradient><linearGradient id="J" x1="1380.5" x2="1380.5" y1="-25.5" y2="194.25" gradientUnits="userSpaceOnUse"><stop stop-color="#212121"/><stop offset="1" stop-color="#5B5B5B" stop-opacity="0"/></linearGradient><linearGradient id="K" x1="1340.56" x2="1340.56" y1="-25.5" y2="184.261" gradientUnits="userSpaceOnUse"><stop stop-color="#212121"/><stop offset="1" stop-color="#5B5B5B" stop-opacity="0"/></linearGradient><linearGradient id="L" x1="1300.62" x2="1300.62" y1="-25.5" y2="174.273" gradientUnits="userSpaceOnUse"><stop stop-color="#212121"/><stop offset="1" stop-color="#5B5B5B" stop-opacity="0"/></linearGradient><linearGradient id="M" x1="1260.68" x2="1260.68" y1="-25.5" y2="164.284" gradientUnits="userSpaceOnUse"><stop stop-color="#212121"/><stop offset="1" stop-color="#5B5B5B" stop-opacity="0"/></linearGradient><linearGradient id="N" x1="1220.74" x2="1220.74" y1="-25.5" y2="154.295" gradientUnits="userSpaceOnUse"><stop stop-color="#212121"/><stop offset="1" stop-color="#5B5B5B" stop-opacity="0"/></linearGradient><linearGradient id="O" x1="1180.8" x2="1180.8" y1="-25.5" y2="144.307" gradientUnits="userSpaceOnUse"><stop stop-color="#212121"/><stop offset="1" stop-color="#5B5B5B" stop-opacity="0"/></linearGradient><linearGradient id="P" x1="1140.86" x2="1140.86" y1="-25.5" y2="134.318" gradientUnits="userSpaceOnUse"><stop stop-color="#212121"/><stop offset="1" stop-color="#5B5B5B" stop-opacity="0"/></linearGradient><linearGradient id="Q" x1="1100.92" x2="1100.92" y1="-25.5" y2="124.33" gradientUnits="userSpaceOnUse"><stop stop-color="#5B5B5B" stop-opacity="0"/><stop offset=".703" stop-color="#FAFCFF"/></linearGradient><linearGradient id="R" x1="1060.98" x2="1060.98" y1="-25.5" y2="114.341" gradientUnits="userSpaceOnUse"><stop stop-color="#212121"/><stop offset="1" stop-color="#5B5B5B" stop-opacity="0"/></linearGradient><linearGradient id="S" x1="1021.05" x2="1021.05" y1="-25.5" y2="104.352" gradientUnits="userSpaceOnUse"><stop stop-color="#212121"/><stop offset="1" stop-color="#5B5B5B" stop-opacity="0"/></linearGradient><linearGradient id="T" x1="981.106" x2="981.106" y1="-25.5" y2="94.364" gradientUnits="userSpaceOnUse"><stop stop-color="#212121"/><stop offset="1" stop-color="#5B5B5B" stop-opacity="0"/></linearGradient><linearGradient id="U" x1="941.167" x2="941.167" y1="-25.5" y2="84.375" gradientUnits="userSpaceOnUse"><stop stop-color="#212121"/><stop offset="1" stop-color="#5B5B5B" stop-opacity="0"/></linearGradient><linearGradient id="V" x1="1380.5" x2="1380.5" y1="-25.5" y2="194.25" gradientUnits="userSpaceOnUse"><stop stop-color="#212121"/><stop offset="1" stop-color="#5B5B5B" stop-opacity="0"/></linearGradient><linearGradient id="W" x1="1420.44" x2="1420.44" y1="-25.5" y2="184.261" gradientUnits="userSpaceOnUse"><stop stop-color="#212121"/><stop offset="1" stop-color="#5B5B5B" stop-opacity="0"/></linearGradient><linearGradient id="X" x1="1460.38" x2="1460.38" y1="-25.5" y2="174.273" gradientUnits="userSpaceOnUse"><stop stop-color="#212121"/><stop offset="1" stop-color="#5B5B5B" stop-opacity="0"/></linearGradient><linearGradient id="Y" x1="1500.32" x2="1500.32" y1="-25.5" y2="164.284" gradientUnits="userSpaceOnUse"><stop stop-color="#212121"/><stop offset="1" stop-color="#5B5B5B" stop-opacity="0"/></linearGradient><linearGradient id="Z" x1="1540.26" x2="1540.26" y1="-25.5" y2="154.295" gradientUnits="userSpaceOnUse"><stop stop-color="#5B5B5B" stop-opacity="0"/><stop offset=".948" stop-color="#fff"/></linearGradient><linearGradient id="aa" x1="1580.2" x2="1580.2" y1="-25.5" y2="144.307" gradientUnits="userSpaceOnUse"><stop stop-color="#212121"/><stop offset="1" stop-color="#5B5B5B" stop-opacity="0"/></linearGradient><linearGradient id="ab" x1="1620.14" x2="1620.14" y1="-25.5" y2="134.318" gradientUnits="userSpaceOnUse"><stop stop-color="#212121"/><stop offset="1" stop-color="#5B5B5B" stop-opacity="0"/></linearGradient><linearGradient id="ac" x1="1660.08" x2="1660.08" y1="-25.5" y2="124.33" gradientUnits="userSpaceOnUse"><stop stop-color="#212121"/><stop offset="1" stop-color="#5B5B5B" stop-opacity="0"/></linearGradient><linearGradient id="ad" x1="1700.02" x2="1700.02" y1="-25.5" y2="114.341" gradientUnits="userSpaceOnUse"><stop stop-color="#212121"/><stop offset="1" stop-color="#5B5B5B" stop-opacity="0"/></linearGradient><linearGradient id="ae" x1="1739.95" x2="1739.95" y1="-25.5" y2="104.352" gradientUnits="userSpaceOnUse"><stop stop-color="#212121"/><stop offset="1" stop-color="#5B5B5B" stop-opacity="0"/></linearGradient><linearGradient id="af" x1="1779.89" x2="1779.89" y1="-25.5" y2="94.364" gradientUnits="userSpaceOnUse"><stop stop-color="#212121"/><stop offset="1" stop-color="#5B5B5B" stop-opacity="0"/></linearGradient><linearGradient id="ag" x1="1819.83" x2="1819.83" y1="-25.5" y2="84.375" gradientUnits="userSpaceOnUse"><stop stop-color="#212121"/><stop offset="1" stop-color="#5B5B5B" stop-opacity="0"/></linearGradient><radialGradient id="ah" cx="0" cy="0" r="1" gradientTransform="rotate(157.491 386.771 -11.14) scale(458.424 631.986)" gradientUnits="userSpaceOnUse"><stop stop-color="#D9D9D9"/><stop offset=".89" stop-color="#D9D9D9" stop-opacity="0"/></radialGradient><radialGradient id="aj" cx="0" cy="0" r="1" gradientTransform="matrix(-179.18871 1.72327 -.62214 -64.6916 538.21 563.861)" gradientUnits="userSpaceOnUse"><stop offset=".62" stop-color="#FCFCFD"/><stop offset="1" stop-color="#FCFCFD" stop-opacity="0"/></radialGradient><radialGradient id="ak" cx="0" cy="0" r="1" gradientTransform="rotate(179.449 331.634 172.475) scale(74.2262 156.187)" gradientUnits="userSpaceOnUse"><stop stop-color="#FCFCFD"/><stop offset="1" stop-color="#FCFCFD" stop-opacity="0"/></radialGradient><radialGradient id="al" cx="0" cy="0" r="1" gradientTransform="rotate(179.449 242.783 16.711) scale(74.2262 156.187)" gradientUnits="userSpaceOnUse"><stop stop-color="#FCFCFD"/><stop offset="1" stop-color="#FCFCFD" stop-opacity="0"/></radialGradient><clipPath id="a"><path fill="#fff" d="M0 0h1920v1080H0z"/></clipPath><filter id="am" width="538.167" height="538.166" x="-119.895" y="-81.931" color-interpolation-filters="sRGB" filterUnits="userSpaceOnUse"><feFlood flood-opacity="0" result="BackgroundImageFix"/><feColorMatrix in="SourceAlpha" result="hardAlpha" values="0 0 0 0 0 0 0 0 0 0 0 0 0 0 0 0 0 0 127 0"/><feOffset/><feGaussianBlur stdDeviation="2.79"/><feColorMatrix values="0 0 0 0 1 0 0 0 0 1 0 0 0 0 1 0 0 0 1 0"/><feBlend in2="BackgroundImageFix" result="effect1_dropShadow_777_1572"/><feColorMatrix in="SourceAlpha" result="hardAlpha" values="0 0 0 0 0 0 0 0 0 0 0 0 0 0 0 0 0 0 127 0"/><feOffset/><feGaussianBlur stdDeviation="5.58"/><feColorMatrix values="0 0 0 0 1 0 0 0 0 1 0 0 0 0 1 0 0 0 1 0"/><feBlend in2="effect1_dropShadow_777_1572" result="effect2_dropShadow_777_1572"/><feColorMatrix in="SourceAlpha" result="hardAlpha" values="0 0 0 0 0 0 0 0 0 0 0 0 0 0 0 0 0 0 127 0"/><feOffset/><feGaussianBlur stdDeviation="19.53"/><feColorMatrix values="0 0 0 0 1 0 0 0 0 1 0 0 0 0 1 0 0 0 1 0"/><feBlend in2="effect2_dropShadow_777_1572" result="effect3_dropShadow_777_1572"/><feColorMatrix in="SourceAlpha" result="hardAlpha" values="0 0 0 0 0 0 0 0 0 0 0 0 0 0 0 0 0 0 127 0"/><feOffset/><feGaussianBlur stdDeviation="39.06"/><feColorMatrix values="0 0 0 0 1 0 0 0 0 1 0 0 0 0 1 0 0 0 1 0"/><feBlend in2="effect3_dropShadow_777_1572" result="effect4_dropShadow_777_1572"/><feColorMatrix in="SourceAlpha" result="hardAlpha" values="0 0 0 0 0 0 0 0 0 0 0 0 0 0 0 0 0 0 127 0"/><feOffset/><feGaussianBlur stdDeviation="66.96"/><feColorMatrix values="0 0 0 0 1 0 0 0 0 1 0 0 0 0 1 0 0 0 1 0"/><feBlend in2="effect4_dropShadow_777_1572" result="effect5_dropShadow_777_1572"/><feColorMatrix in="SourceAlpha" result="hardAlpha" values="0 0 0 0 0 0 0 0 0 0 0 0 0 0 0 0 0 0 127 0"/><feOffset/><feGaussianBlur stdDeviation="117.18"/><feColorMatrix values="0 0 0 0 1 0 0 0 0 1 0 0 0 0 1 0 0 0 1 0"/><feBlend in2="effect5_dropShadow_777_1572" result="effect6_dropShadow_777_1572"/><feBlend in="SourceGraphic" in2="effect6_dropShadow_777_1572" result="shape"/></filter></defs></svg>