<svg width="24" height="24" viewBox="0 0 24 24" fill="none" xmlns="http://www.w3.org/2000/svg">
<path fill-rule="evenodd" clip-rule="evenodd" d="M19.598 2.22019C16.5198 6.41696 14.0407 9.34753 12.6415 10.4433C11.8844 11.0362 10.4562 11.4702 7.80883 11.9119C6.13019 12.1919 2.25446 12.6253 1.23303 12.6472C0.977734 12.6527 0.945322 12.6652 1.07217 12.7092C1.15956 12.7395 1.37405 12.7675 1.54882 12.7713C2.0889 12.7829 5.2114 13.1824 6.20201 13.3665C7.73574 13.6516 8.52736 13.8853 9.18812 14.2481C9.60109 14.4748 9.71543 14.6509 9.71543 15.0602C9.71543 15.9862 8.40788 18.8689 6.12816 22.9688C5.63333 23.8587 5.17683 24.6798 5.11378 24.7934L4.99907 25L5.1488 24.7945C9.77733 18.4422 12.4361 15.3155 13.8146 14.6037C15.1569 13.9106 18.2991 13.3166 22.7439 12.9156C23.6352 12.8352 24.5075 12.7445 24.6822 12.714L25 12.6585L24.7309 12.6494C24.5828 12.6444 23.9965 12.5933 23.428 12.5357C19.2914 12.117 16.6615 11.465 16.2541 10.7572C16.1042 10.4967 16.1299 10.1748 16.3607 9.42362C16.7664 8.10317 18.2794 4.98696 19.9643 2.00212C20.2421 1.5098 20.4824 1.08372 20.4983 1.05535C20.6059 0.86187 20.3769 1.15823 19.598 2.22019Z" fill="white" stroke="white" stroke-linejoin="round"/>
</svg>
